<svg width="15" height="16" viewBox="0 0 15 16" fill="none" xmlns="http://www.w3.org/2000/svg">
<path d="M13.9083 7.58399L7.96308 13.5292C7.23475 14.2575 6.24693 14.6667 5.21692 14.6667C4.1869 14.6667 3.19908 14.2575 2.47075 13.5292C1.74242 12.8008 1.33325 11.813 1.33325 10.783C1.33325 9.75299 1.74242 8.76516 2.47075 8.03684L8.41592 2.09166C8.90148 1.60611 9.56003 1.33333 10.2467 1.33333C10.9334 1.33333 11.5919 1.60611 12.0775 2.09166C12.563 2.57722 12.8358 3.23577 12.8358 3.92244C12.8358 4.60912 12.563 5.26767 12.0775 5.75322L6.12584 11.6984C5.88306 11.9412 5.55378 12.0776 5.21045 12.0776C4.86711 12.0776 4.53783 11.9412 4.29506 11.6984C4.05228 11.4556 3.91589 11.1263 3.91589 10.783C3.91589 10.4397 4.05228 10.1104 4.29506 9.86761L9.78739 4.38175" stroke="#131214" stroke-width="1.5" stroke-linecap="round" stroke-linejoin="round"/>
</svg>
