<svg width="16" height="16" viewBox="0 0 16 16" fill="none" xmlns="http://www.w3.org/2000/svg">
<path d="M10.6666 5.33292V8.66625C10.6666 9.19668 10.8773 9.70539 11.2524 10.0805C11.6274 10.4555 12.1362 10.6662 12.6666 10.6662C13.197 10.6662 13.7057 10.4555 14.0808 10.0805C14.4559 9.70539 14.6666 9.19668 14.6666 8.66625V7.99958C14.6665 6.49494 14.1574 5.03457 13.2221 3.85594C12.2868 2.67731 10.9803 1.84973 9.51501 1.50778C8.04974 1.16583 6.51188 1.32961 5.15149 1.9725C3.7911 2.61538 2.68819 3.69955 2.0221 5.04873C1.356 6.39791 1.1659 7.93274 1.4827 9.40366C1.7995 10.8746 2.60457 12.1951 3.76701 13.1504C4.92945 14.1058 6.38088 14.6398 7.8853 14.6657C9.38972 14.6915 10.8587 14.2077 12.0533 13.2929M10.6666 7.99958C10.6666 9.47234 9.47268 10.6662 7.99992 10.6662C6.52716 10.6662 5.33326 9.47234 5.33326 7.99958C5.33326 6.52682 6.52716 5.33292 7.99992 5.33292C9.47268 5.33292 10.6666 6.52682 10.6666 7.99958Z" stroke="#131214" stroke-width="1.5" stroke-linecap="round" stroke-linejoin="round"/>
</svg>
