<svg width="18" height="18" viewBox="0 0 18 18" fill="none" xmlns="http://www.w3.org/2000/svg">
<path d="M12.8398 9C12.8398 8.58579 12.504 8.25 12.0898 8.25C11.6756 8.25 11.3398 8.58579 11.3398 9H12.8398ZM8.88979 12.2V12.95V12.2ZM6.43979 9C6.43979 8.58579 6.104 8.25 5.68979 8.25C5.27557 8.25 4.93979 8.58579 4.93979 9H6.43979ZM16.8735 5.57826L17.5919 5.36275L16.8735 5.57826ZM1.00001 6.4403L1.75001 6.4403V6.4403H1.00001ZM1.12653 5.57827L0.408161 5.36276L1.12653 5.57827ZM1 14L1.75 14L1 14ZM16.1414 3.13795L15.423 3.35346L16.1414 3.13795ZM1.85862 3.13796L2.57699 3.35347L1.85862 3.13796ZM11.3398 9C11.3398 9.64978 11.0817 10.2729 10.6222 10.7324L11.6829 11.7931C12.4236 11.0523 12.8398 10.0476 12.8398 9H11.3398ZM10.6222 10.7324C10.1627 11.1919 9.53957 11.45 8.88979 11.45V12.95C9.93739 12.95 10.9421 12.5338 11.6829 11.7931L10.6222 10.7324ZM8.88979 11.45C8.24001 11.45 7.61684 11.1919 7.15738 10.7324L6.09672 11.7931C6.83749 12.5338 7.84218 12.95 8.88979 12.95V11.45ZM7.15738 10.7324C6.69791 10.2729 6.43979 9.64978 6.43979 9H4.93979C4.93979 10.0476 5.35595 11.0523 6.09672 11.7931L7.15738 10.7324ZM1 6.75H16.7796V5.25H1V6.75ZM1.8449 5.79378L2.57699 3.35347L1.14025 2.92245L0.408161 5.36276L1.8449 5.79378ZM15.423 3.35346L16.1551 5.79377L17.5919 5.36275L16.8598 2.92244L15.423 3.35346ZM16.1551 5.79377C16.218 6.00352 16.25 6.22133 16.25 6.44031H17.75C17.75 6.07534 17.6967 5.71233 17.5919 5.36275L16.1551 5.79377ZM1.75001 6.4403C1.75001 6.22132 1.78198 6.00352 1.8449 5.79378L0.408161 5.36276C0.30329 5.71233 0.250012 6.07534 0.250012 6.4403H1.75001ZM0.250004 14C0.250001 16.0711 1.92893 17.75 4 17.75V16.25C2.75736 16.25 1.75 15.2426 1.75 14L0.250004 14ZM16.25 14C16.25 15.2426 15.2427 16.25 14 16.25V17.75C16.0711 17.75 17.75 16.0711 17.75 14H16.25ZM13.2679 1.75C14.2615 1.75 15.1375 2.40175 15.423 3.35346L16.8598 2.92244C16.3839 1.33625 14.9239 0.25 13.2679 0.25V1.75ZM4.7321 0.25C3.07606 0.25 1.6161 1.33626 1.14025 2.92245L2.57699 3.35347C2.8625 2.40176 3.73848 1.75 4.7321 1.75V0.25ZM16.25 6.44031V14H17.75V6.44031H16.25ZM1.75 14L1.75001 6.4403L0.250012 6.4403L0.250004 14L1.75 14ZM4.7321 1.75H13.2679V0.25H4.7321V1.75ZM14 16.25H4V17.75H14V16.25Z" fill="#131214"/>
</svg>
