<svg width="14" height="10" viewBox="0 0 14 10" fill="none" xmlns="http://www.w3.org/2000/svg">
<path d="M8.18287 6.04117C7.76865 6.04117 7.43287 6.37695 7.43287 6.79117C7.43287 7.20538 7.76865 7.54117 8.18287 7.54117V6.04117ZM9.84431 7.54117C10.2585 7.54117 10.5943 7.20538 10.5943 6.79117C10.5943 6.37695 10.2585 6.04117 9.84431 6.04117V7.54117ZM1.66666 7L2.41666 7V7L1.66666 7ZM1.66666 3L2.41666 3V3H1.66666ZM1.66666 4.41667H12.3333V2.91667H1.66666V4.41667ZM8.18287 7.54117H9.84431V6.04117H8.18287V7.54117ZM0.91666 6.99999C0.916657 8.51878 2.14787 9.75 3.66666 9.75V8.25C2.9763 8.25 2.41666 7.69036 2.41666 7L0.91666 6.99999ZM11.5833 7C11.5833 7.69036 11.0237 8.25 10.3333 8.25V9.75C11.8521 9.75 13.0833 8.51878 13.0833 7H11.5833ZM13.0833 3C13.0833 1.48122 11.8521 0.25 10.3333 0.25V1.75C11.0237 1.75 11.5833 2.30964 11.5833 3H13.0833ZM2.41666 3C2.41666 2.30964 2.97631 1.75 3.66666 1.75V0.25C2.14788 0.25 0.916664 1.48122 0.916664 3H2.41666ZM11.5833 3V7H13.0833V3H11.5833ZM2.41666 7L2.41666 3L0.916664 3L0.91666 7L2.41666 7ZM3.66666 1.75H10.3333V0.25H3.66666V1.75ZM10.3333 8.25H3.66666V9.75H10.3333V8.25Z" fill="white"/>
</svg>
