<svg width="18" height="11" viewBox="0 0 18 11" fill="none" xmlns="http://www.w3.org/2000/svg">
<path d="M7.22222 5.55556C7.22222 5.00327 6.77451 4.55556 6.22222 4.55556H5.55556C5.00327 4.55556 4.55556 5.00327 4.55556 5.55556V11.5556C4.55556 12.1078 5.00327 12.5556 5.55556 12.5556H6.22222C6.77451 12.5556 7.22222 12.1078 7.22222 11.5556V5.55556Z" stroke="#131214" stroke-width="1.5"/>
<path d="M13.4444 5.55556C13.4444 5.00327 12.9967 4.55556 12.4444 4.55556H11.7778C11.2255 4.55556 10.7778 5.00327 10.7778 5.55556V9C10.7778 9.55228 11.2255 10 11.7778 10H12.4444C12.9967 10 13.4444 9.55228 13.4444 9V5.55556Z" stroke="#131214" stroke-width="1.5"/>
<path d="M4 17C2.34314 17 0.999998 15.6569 1 14L1.00001 4C1.00001 2.34315 2.34315 1 4.00001 1H14C15.6569 1 17 2.34315 17 4V14C17 15.6569 15.6569 17 14 17H4Z" stroke="#131214" stroke-width="1.5"/>
</svg>
