<svg width="19" height="18" viewBox="0 0 19 18" fill="none" xmlns="http://www.w3.org/2000/svg">
<path d="M1.5 1.1499H3.23042C3.96062 1.1499 4.59029 1.66304 4.73766 2.37822L6.38547 10.3746C6.58197 11.3282 7.42152 12.0124 8.39512 12.0124H14.5778C15.5255 12.0124 16.35 11.3633 16.5724 10.442L17.4563 6.78064C17.6901 5.81242 16.9564 4.88059 15.9604 4.88059H5.23068M8.21523 16.0726C8.21523 16.4847 7.88118 16.8188 7.4691 16.8188C7.05702 16.8188 6.72296 16.4847 6.72296 16.0726C6.72296 15.6606 7.05702 15.3265 7.4691 15.3265C7.88118 15.3265 8.21523 15.6606 8.21523 16.0726ZM16.4227 16.0726C16.4227 16.4847 16.0887 16.8188 15.6766 16.8188C15.2645 16.8188 14.9305 16.4847 14.9305 16.0726C14.9305 15.6606 15.2645 15.3265 15.6766 15.3265C16.0887 15.3265 16.4227 15.6606 16.4227 16.0726Z" stroke="#7257FF" stroke-width="1.5" stroke-linecap="round" stroke-linejoin="round"/>
</svg>
