<svg width="13" height="16" viewBox="0 0 13 16" fill="none" xmlns="http://www.w3.org/2000/svg">
<path d="M6.33311 7.58333L6.70346 11.4722M9.66642 7.58333L9.29606 11.4722M1.62476 4.60377H3.13415M3.13415 4.60377C7.06395 4.60377 14.3612 4.60377 14.3612 4.60377M3.13415 4.60377L3.67149 12.3399C3.76251 13.6502 4.852 14.6667 6.16548 14.6667H9.85251C11.1584 14.6667 12.2443 13.6616 12.345 12.3596L12.9455 4.60377C12.9455 4.60377 6.57272 4.60377 3.13415 4.60377ZM5.39834 4.60377V3C5.39834 2.07952 6.14453 1.33333 7.06501 1.33333H9.01469C9.93517 1.33333 10.6814 2.07952 10.6814 3V4.60377" stroke="#131214" stroke-width="1.5" stroke-linecap="round" stroke-linejoin="round"/>
</svg>
