<svg width="4" height="15" viewBox="0 0 4 15" fill="none" xmlns="http://www.w3.org/2000/svg">
<path d="M2.5 7.5C2.5 7.77614 2.27614 8 2 8C1.72386 8 1.5 7.77614 1.5 7.5C1.5 7.22386 1.72386 7 2 7C2.27614 7 2.5 7.22386 2.5 7.5Z" fill="#131214"/>
<path d="M2.5 13.5C2.5 13.7761 2.27614 14 2 14C1.72386 14 1.5 13.7761 1.5 13.5C1.5 13.2239 1.72386 13 2 13C2.27614 13 2.5 13.2239 2.5 13.5Z" fill="#131214"/>
<path d="M2.5 1.5C2.5 1.77614 2.27614 2 2 2C1.72386 2 1.5 1.77614 1.5 1.5C1.5 1.22386 1.72386 1 2 1C2.27614 1 2.5 1.22386 2.5 1.5Z" fill="#131214"/>
<path d="M2.5 7.5C2.5 7.77614 2.27614 8 2 8C1.72386 8 1.5 7.77614 1.5 7.5C1.5 7.22386 1.72386 7 2 7C2.27614 7 2.5 7.22386 2.5 7.5Z" stroke="#131214" stroke-width="1.5"/>
<path d="M2.5 13.5C2.5 13.7761 2.27614 14 2 14C1.72386 14 1.5 13.7761 1.5 13.5C1.5 13.2239 1.72386 13 2 13C2.27614 13 2.5 13.2239 2.5 13.5Z" stroke="#131214" stroke-width="1.5"/>
<path d="M2.5 1.5C2.5 1.77614 2.27614 2 2 2C1.72386 2 1.5 1.77614 1.5 1.5C1.5 1.22386 1.72386 1 2 1C2.27614 1 2.5 1.22386 2.5 1.5Z" stroke="#131214" stroke-width="1.5"/>
</svg>
