<svg width="18" height="24" viewBox="0 0 18 24" fill="none" xmlns="http://www.w3.org/2000/svg">
<path d="M3.33417 10.8793C2.85145 11.3843 2.42011 11.837 2.06353 12.212C1.66055 12.6358 1.96183 13.3334 2.54662 13.3334H6.65564C7.13425 13.3334 7.45919 13.8201 7.27389 14.2614C6.28288 16.6215 3.7968 22.6667 4.33333 22.6667C4.86987 22.6667 7.11202 20.0757 9.66664 17.3017M7.56762 6.49478C10.2041 3.79888 12.3333 1.33337 13 1.33337C13.6667 1.33337 11.0505 7.3786 10.0595 9.73866C9.87416 10.1799 10.1991 10.6667 10.6777 10.6667H14.1821C14.7573 10.6667 15.0616 11.3455 14.6779 11.7741C14.432 12.0487 14.1478 12.3657 13.8341 12.7148M1 4.26671L17 20.2667" stroke="white" stroke-width="1.5" stroke-linecap="round"/>
</svg>
