<svg width="16" height="16" viewBox="0 0 16 16" fill="none" xmlns="http://www.w3.org/2000/svg">
<path d="M2.99992 14.0162C2.99992 14.0162 6.10176 10.3148 7.99992 8.41667C9.89807 6.51851 10.9166 6.75 11.9832 7.48994C13.0498 8.22988 14.6032 10.0833 14.6032 10.0833M6.51842 5.40739C6.51842 6.02104 6.02096 6.51851 5.40731 6.51851C4.79366 6.51851 4.2962 6.02104 4.2962 5.40739C4.2962 4.79374 4.79366 4.29628 5.40731 4.29628C6.02096 4.29628 6.51842 4.79374 6.51842 5.40739ZM1.33325 12.1667C1.33325 13.5474 2.45254 14.6667 3.83325 14.6667H12.1666C13.5473 14.6667 14.6666 13.5474 14.6666 12.1667V3.83333C14.6666 2.45262 13.5473 1.33333 12.1666 1.33333H3.83326C2.45255 1.33333 1.33326 2.45262 1.33326 3.83333L1.33325 12.1667Z" stroke="#131214" stroke-width="1.5" stroke-linejoin="round"/>
</svg>
