<svg width="14" height="14" viewBox="0 0 14 14" fill="none" xmlns="http://www.w3.org/2000/svg">
<path d="M9.93733 4.06779H9.94267M1.6665 10.3334C1.6665 11.438 2.56193 12.3334 3.6665 12.3334H10.3332C11.4377 12.3334 12.3332 11.438 12.3332 10.3334V3.66675C12.3332 2.56218 11.4377 1.66675 10.3332 1.66675H3.66651C2.56194 1.66675 1.66651 2.56218 1.66651 3.66675L1.6665 10.3334ZM9.13926 6.66424C9.20508 7.10811 9.12927 7.56142 8.9226 7.95972C8.71593 8.35801 8.38894 8.681 7.98813 8.88273C7.58732 9.08447 7.1331 9.15469 6.69008 9.08341C6.24706 9.01212 5.8378 8.80295 5.52051 8.48566C5.20322 8.16837 4.99405 7.75911 4.92276 7.31609C4.85148 6.87307 4.9217 6.41885 5.12344 6.01804C5.32518 5.61723 5.64816 5.29024 6.04645 5.08357C6.44475 4.8769 6.89806 4.80109 7.34193 4.86691C7.79469 4.93405 8.21385 5.14502 8.5375 5.46867C8.86115 5.79232 9.07212 6.21148 9.13926 6.66424Z" stroke="#7257FF" stroke-width="1.5" stroke-linecap="round" stroke-linejoin="round"/>
</svg>
