<svg width="12" height="14" viewBox="0 0 12 14" fill="none" xmlns="http://www.w3.org/2000/svg">
<path d="M3.46665 6.46667V4.33333C3.46665 3.62609 3.7476 2.94781 4.2477 2.44771C4.7478 1.94762 5.42608 1.66667 6.13332 1.66667C6.84056 1.66667 7.51884 1.94762 8.01894 2.44771C8.51903 2.94781 8.79999 3.62609 8.79999 4.33333V4.39583M3.33331 12.3333H8.93332C10.0379 12.3333 10.9333 11.4379 10.9333 10.3333V8.46667C10.9333 7.3621 10.0379 6.46667 8.93332 6.46667H3.33332C2.22875 6.46667 1.33332 7.36209 1.33332 8.46666L1.33331 10.3333C1.33331 11.4379 2.22874 12.3333 3.33331 12.3333Z" stroke="white" stroke-width="1.5" stroke-linecap="round" stroke-linejoin="round"/>
</svg>
