<svg width="18" height="3" viewBox="0 0 18 3" fill="none" xmlns="http://www.w3.org/2000/svg">
<path d="M9.61539 1.61538C9.61539 1.95525 9.33987 2.23077 9 2.23077C8.66013 2.23077 8.38462 1.95525 8.38462 1.61538C8.38462 1.27552 8.66013 1 9 1C9.33987 1 9.61539 1.27552 9.61539 1.61538Z" fill="#131214"/>
<path d="M17 1.61538C17 1.95525 16.7245 2.23077 16.3846 2.23077C16.0447 2.23077 15.7692 1.95525 15.7692 1.61538C15.7692 1.27552 16.0447 1 16.3846 1C16.7245 1 17 1.27552 17 1.61538Z" fill="#131214"/>
<path d="M2.23077 1.61538C2.23077 1.95525 1.95525 2.23077 1.61538 2.23077C1.27552 2.23077 1 1.95525 1 1.61538C1 1.27552 1.27552 1 1.61538 1C1.95525 1 2.23077 1.27552 2.23077 1.61538Z" fill="#131214"/>
<path d="M9.61539 1.61538C9.61539 1.95525 9.33987 2.23077 9 2.23077C8.66013 2.23077 8.38462 1.95525 8.38462 1.61538C8.38462 1.27552 8.66013 1 9 1C9.33987 1 9.61539 1.27552 9.61539 1.61538Z" stroke="#131214" stroke-width="1.5"/>
<path d="M17 1.61538C17 1.95525 16.7245 2.23077 16.3846 2.23077C16.0447 2.23077 15.7692 1.95525 15.7692 1.61538C15.7692 1.27552 16.0447 1 16.3846 1C16.7245 1 17 1.27552 17 1.61538Z" stroke="#131214" stroke-width="1.5"/>
<path d="M2.23077 1.61538C2.23077 1.95525 1.95525 2.23077 1.61538 2.23077C1.27552 2.23077 1 1.95525 1 1.61538C1 1.27552 1.27552 1 1.61538 1C1.95525 1 2.23077 1.27552 2.23077 1.61538Z" stroke="#131214" stroke-width="1.5"/>
</svg>
