<svg width="29" height="29" viewBox="0 0 29 29" fill="none" xmlns="http://www.w3.org/2000/svg">
<path d="M9.80539 22.8888L8.5371 8.23297C8.31218 5.63395 10.1232 3.2988 12.6965 2.86992L20.5796 1.55607C23.4565 1.07658 26.1315 3.15119 26.383 6.05696L27.5832 19.9258M9.80539 22.8888C9.80539 25.3434 7.81555 27.3333 5.36095 27.3333C2.90635 27.3333 0.916504 25.3434 0.916504 22.8888C0.916504 20.4342 2.90635 18.4444 5.36095 18.4444C7.81555 18.4444 9.80539 20.4342 9.80539 22.8888ZM27.5832 19.9258C27.5832 22.3804 25.5933 24.3703 23.1387 24.3703C20.6841 24.3703 18.6943 22.3804 18.6943 19.9258C18.6943 17.4712 20.6841 15.4814 23.1387 15.4814C25.5933 15.4814 27.5832 17.4712 27.5832 19.9258Z" stroke="#131214" stroke-width="1.5" stroke-linecap="round" stroke-linejoin="round"/>
</svg>
