<svg width="16" height="18" viewBox="0 0 16 18" fill="none" xmlns="http://www.w3.org/2000/svg">
<path d="M13.4856 17C14.0951 17 14.6571 16.6713 14.9559 16.1401V16.1401C15.2719 15.5784 15.2372 14.8849 14.7694 14.4417C13.7628 13.488 11.6478 12 8.25 12C4.85834 12 2.84708 13.4827 1.9041 14.4365C1.45946 14.8863 1.44264 15.5647 1.75271 16.1159V16.1159" stroke="#898D8F" stroke-width="1.5" stroke-linecap="round" stroke-linejoin="round"/>
<path d="M8.36111 8.11111C10.3248 8.11111 11.9167 6.51924 11.9167 4.55556C11.9167 2.59188 10.3248 1 8.36111 1C6.39743 1 4.80556 2.59188 4.80556 4.55556C4.80556 6.51924 6.39743 8.11111 8.36111 8.11111Z" stroke="#898D8F" stroke-width="1.5" stroke-linecap="round" stroke-linejoin="round"/>
</svg>
