<svg width="12" height="14" viewBox="0 0 12 14" fill="none" xmlns="http://www.w3.org/2000/svg">
<path d="M4.31483 7.80541L7.9575 9.92808M7.95216 4.07208L4.31483 6.19475M10.9335 3.26675C10.9335 4.1504 10.2172 4.86675 9.3335 4.86675C8.44984 4.86675 7.7335 4.1504 7.7335 3.26675C7.7335 2.38309 8.44984 1.66675 9.3335 1.66675C10.2172 1.66675 10.9335 2.38309 10.9335 3.26675ZM4.5335 7.00008C4.5335 7.88374 3.81715 8.60008 2.9335 8.60008C2.04984 8.60008 1.3335 7.88374 1.3335 7.00008C1.3335 6.11643 2.04984 5.40008 2.9335 5.40008C3.81715 5.40008 4.5335 6.11643 4.5335 7.00008ZM10.9335 10.7334C10.9335 11.6171 10.2172 12.3334 9.3335 12.3334C8.44984 12.3334 7.7335 11.6171 7.7335 10.7334C7.7335 9.84976 8.44984 9.13341 9.3335 9.13341C10.2172 9.13341 10.9335 9.84976 10.9335 10.7334Z" stroke="#6E7375" stroke-width="1.5" stroke-linecap="round" stroke-linejoin="round"/>
</svg>
