<svg width="18" height="18" viewBox="0 0 18 18" fill="none" xmlns="http://www.w3.org/2000/svg">
<path d="M8.54241 1.58442C8.72961 1.20518 9.27039 1.20518 9.45759 1.58442L11.4157 5.55129C11.5642 5.85221 11.8512 6.06088 12.1833 6.10942L16.5629 6.74958C16.9814 6.81073 17.1481 7.32503 16.8452 7.62007L13.6773 10.7056C13.4366 10.9401 13.3267 11.278 13.3835 11.6093L14.131 15.9677C14.2025 16.3846 13.7649 16.7025 13.3905 16.5056L9.47504 14.4465C9.17765 14.2901 8.82235 14.2901 8.52496 14.4465L4.60946 16.5056C4.23509 16.7025 3.79749 16.3846 3.86899 15.9677L4.61652 11.6093C4.67332 11.278 4.56344 10.9401 4.32271 10.7056L1.1548 7.62007C0.851892 7.32503 1.01865 6.81073 1.43705 6.74958L5.81675 6.10942C6.14881 6.06088 6.43578 5.85221 6.58432 5.55129L8.54241 1.58442Z" stroke="#131214" stroke-width="1.5" stroke-linecap="round" stroke-linejoin="round"/>
</svg>
