<svg width="16" height="14" viewBox="0 0 16 14" fill="none" xmlns="http://www.w3.org/2000/svg">
<path d="M14.6198 2.29759C14.8109 1.92712 14.3793 1.60111 14.0032 1.78098C13.6731 1.93889 13.3308 2.07149 12.9792 2.17735C12.584 1.7229 12.0587 1.40079 11.4744 1.2546C10.8902 1.1084 10.2751 1.14518 9.71238 1.35994C9.14969 1.57471 8.66653 1.95711 8.32825 2.45542C7.98998 2.95374 7.8129 3.54392 7.82097 4.14615V4.36278C7.82097 4.60741 7.62587 4.80903 7.38141 4.8C6.37864 4.76297 5.39374 4.51053 4.49437 4.05785C3.70181 3.65893 2.99459 3.11402 2.40861 2.45414C2.17576 2.19192 1.75087 2.24495 1.65429 2.58206C1.20116 4.16365 0.648492 7.86228 4.46612 9.99691C4.77501 10.1696 4.81354 10.6138 4.5013 10.7804C3.64208 11.2388 2.70382 11.5283 1.73769 11.6341C1.45427 11.6652 1.36209 12.0611 1.62484 12.1718C7.30914 14.5663 13.7274 11.2427 13.7274 4.12646C13.7268 3.94366 13.7092 3.76131 13.6749 3.58176C14.0574 3.20448 14.3757 2.77062 14.6198 2.29759Z" stroke="#131214" stroke-width="1.5" stroke-linecap="round" stroke-linejoin="round"/>
</svg>
