<svg width="18" height="18" viewBox="0 0 18 18" fill="none" xmlns="http://www.w3.org/2000/svg">
<path d="M16.6593 16.5C16.6593 16.5 16.999 15.748 16.999 15C16.999 13.8403 16.499 13 15.499 12.5M12.999 7.88931C14.1763 7.37495 14.9991 6.20022 14.9991 4.83333C14.9991 3.46645 14.1763 2.29172 12.999 1.77735M10.699 4.83333C10.699 6.67428 9.20666 8.16667 7.36571 8.16667C5.52476 8.16667 4.03238 6.67428 4.03238 4.83333C4.03238 2.99238 5.52476 1.5 7.36571 1.5C9.20666 1.5 10.699 2.99238 10.699 4.83333ZM7.26154 11.8125C10.447 11.8125 12.4298 13.2075 13.3735 14.1016C13.8121 14.5171 13.8445 15.1673 13.5483 15.6938C13.2682 16.1918 12.7413 16.5 12.1699 16.5H2.58748C2.00006 16.5 1.45832 16.1832 1.17033 15.6712C0.879641 15.1544 0.895407 14.5184 1.31226 14.0967C2.19631 13.2025 4.08186 11.8125 7.26154 11.8125Z" stroke="#131214" stroke-width="1.5" stroke-linecap="round" stroke-linejoin="round"/>
</svg>
