<svg width="9" height="12" viewBox="0 0 9 12" fill="none" xmlns="http://www.w3.org/2000/svg">
<path d="M7.66701 5.00002L7.45489 5.99999C7.45489 5.99999 7.24326 7.61743 6.46083 8.39987C5.82434 9.03635 4.96108 9.39393 4.06095 9.39393M4.06095 9.39393C3.16082 9.39393 2.29756 9.03635 1.66107 8.39987C0.715738 7.45453 0.600342 5.03029 0.600342 5.03029M4.06095 9.39393V11.3333M2.12155 11.3333H6.00034M4.12762 0.666656C3.06701 0.666656 2.40034 1.33332 2.40034 2.1212C2.40034 2.1212 2.40034 4.33332 2.67307 5.99999C2.74328 6.42904 2.82632 6.75573 3.0991 7.02851C3.37188 7.30129 3.74185 7.45453 4.12762 7.45453C4.51338 7.45453 4.88335 7.30129 5.15613 7.02851C5.42891 6.75573 5.58216 5.99999 5.58216 5.99999C5.88915 3.99999 5.88915 2.1212 5.88915 2.1212C5.88915 1.58438 5.40034 0.666656 4.12762 0.666656Z" stroke="#6E7375" stroke-linecap="round" stroke-linejoin="round"/>
</svg>
